<svg width="192" height="192" viewBox="0 0 192 192" xmlns="http://www.w3.org/2000/svg">
  <defs>
    <linearGradient id="grad1" x1="0%" y1="0%" x2="100%" y2="100%">
      <stop offset="0%" style="stop-color:#00d4ff;stop-opacity:1" />
      <stop offset="100%" style="stop-color:#0f6fff;stop-opacity:1" />
    </linearGradient>
    <linearGradient id="grad2" x1="100%" y1="0%" x2="0%" y2="100%">
      <stop offset="0%" style="stop-color:#ff6b9d;stop-opacity:1" />
      <stop offset="100%" style="stop-color:#c744f0;stop-opacity:1" />
    </linearGradient>
  </defs>
  
  <!-- Background -->
  <rect width="192" height="192" fill="#05030a" rx="40"/>
  
  <!-- Accent border gradient -->
  <rect width="192" height="192" fill="none" stroke="url(#grad1)" stroke-width="3" rx="40" opacity="0.6"/>
  
  <!-- Left "I" -->
  <g>
    <rect x="32" y="48" width="24" height="96" rx="4" fill="url(#grad1)"/>
    <rect x="28" y="44" width="32" height="8" rx="2" fill="url(#grad1)" opacity="0.7"/>
  </g>
  
  <!-- Right "M" -->
  <g>
    <rect x="136" y="48" width="24" height="96" rx="4" fill="url(#grad2)"/>
    <path d="M 96 48 L 112 92 L 128 48 L 144 48 L 144 144 Q 144 149 140 149 L 132 149 Q 128 149 128 144 L 128 80 L 112 130 L 96 80 L 96 144 Q 96 149 92 149 L 84 149 Q 80 149 80 144 L 80 48 Z" fill="url(#grad2)"/>
  </g>
  
  <!-- Center accent bar -->
  <rect x="88" y="100" width="16" height="44" rx="3" fill="url(#grad1)" opacity="0.5"/>
  
  <!-- Data points pattern (bottom right) -->
  <g fill="url(#grad1)" opacity="0.4">
    <circle cx="152" cy="144" r="3"/>
    <circle cx="160" cy="152" r="2.5"/>
    <circle cx="144" cy="156" r="2"/>
  </g>
  
  <!-- Analytics indicator (top right) -->
  <g stroke="url(#grad2)" stroke-width="2" fill="none" opacity="0.5">
    <polyline points="156,60 160,56 164,62"/>
  </g>
</svg>